<?xml version="1.0" standalone="no"?>
<!DOCTYPE svg PUBLIC "-//W3C//DTD SVG 20010904//EN"
 "http://www.w3.org/TR/2001/REC-SVG-20010904/DTD/svg10.dtd">
<svg version="1.0" xmlns="http://www.w3.org/2000/svg"
 width="737.000000pt" height="592.000000pt" viewBox="0 0 737.000000 592.000000"
 preserveAspectRatio="xMidYMid meet">

<g transform="translate(0.000000,592.000000) scale(0.100000,-0.100000)"
fill="#000000" stroke="none">
<path d="M0 2960 l0 -2960 3685 0 3685 0 0 2960 0 2960 -3685 0 -3685 0 0
-2960z m3744 1557 c10 -7 16 -22 14 -33 -3 -16 -12 -19 -58 -19 -49 0 -55 2
-58 23 -5 36 65 56 102 29z m126 -98 c251 -69 446 -304 462 -559 l3 -45 -635
0 -635 0 3 45 c8 142 73 281 182 391 130 131 263 187 445 188 72 1 122 -5 175
-20z m-1077 -329 c14 -11 32 -41 41 -67 20 -58 33 -163 20 -163 -14 0 -97 88
-128 134 -30 45 -34 90 -8 105 26 16 47 13 75 -9z m1891 4 c9 -8 16 -23 16
-33 0 -27 -53 -101 -115 -161 l-57 -55 6 60 c16 154 92 248 150 189z m-2200
-53 c85 -42 155 -106 216 -199 27 -42 48 -78 46 -80 -3 -2 -20 7 -38 20 -79
59 -196 87 -358 88 -138 0 -200 30 -200 95 0 108 185 149 334 76z m2674 24
c60 -18 92 -53 92 -101 0 -71 -44 -88 -260 -102 -154 -10 -222 -28 -295 -78
-21 -14 -39 -23 -42 -20 -8 8 65 115 113 167 58 61 128 106 202 130 71 22 123
23 190 4z m-2872 -286 c10 -17 -13 -36 -27 -22 -12 12 -4 33 11 33 5 0 12 -5
16 -11z m2864 -10 c0 -12 -29 -24 -37 -16 -3 4 -3 13 0 21 6 16 37 11 37 -5z
m-755 1 c3 -5 -1 -23 -10 -40 l-16 -30 -666 2 -666 3 -20 27 c-11 14 -16 31
-13 37 9 14 1382 16 1391 1z m-1847 -96 l57 -28 -65 -7 c-36 -3 -91 -18 -123
-33 -71 -32 -112 -34 -127 -5 -16 29 10 65 63 90 54 25 118 19 195 -17z m2513
5 c57 -28 72 -93 24 -105 -14 -3 -48 5 -86 21 -93 38 -127 47 -170 43 -46 -4
-40 8 17 34 90 39 147 41 215 7z m-2251 -19 c0 -24 -26 -38 -42 -22 -16 16 -2
42 22 42 13 0 20 -7 20 -20z m1817 9 c16 -16 5 -39 -17 -39 -23 0 -34 16 -26
35 6 18 28 19 43 4z m-1217 -130 c41 -11 124 -43 184 -73 l110 -55 70 39 c135
74 327 125 426 113 79 -9 58 -23 -33 -23 -51 0 -114 -8 -162 -20 -78 -20 -276
-108 -289 -128 -3 -6 9 -15 28 -22 30 -10 41 -8 83 13 132 67 331 114 427 102
109 -14 197 -49 234 -94 10 -13 19 -13 57 -3 92 24 171 12 340 -53 306 -118
571 -110 698 20 42 43 54 45 30 5 -40 -68 -154 -117 -293 -127 -154 -10 -271
15 -525 112 -82 31 -174 42 -231 26 l-42 -11 2 -54 c1 -71 -25 -111 -75 -111
-27 0 -36 6 -47 27 -11 24 -11 33 4 63 9 20 30 45 47 57 l30 22 -37 32 c-105
91 -352 85 -569 -14 -69 -31 -78 -38 -72 -56 27 -78 9 -156 -40 -178 -29 -13
-31 -28 -10 -68 21 -40 85 -59 122 -35 33 22 45 9 14 -16 -57 -47 -159 1 -174
82 -2 13 -4 -59 -4 -161 1 -102 3 -143 4 -91 l4 94 467 -6 c473 -7 953 -25
1427 -53 290 -17 595 -40 599 -45 6 -7 -65 -844 -72 -850 -4 -3 -45 -3 -92 2
-274 25 -921 60 -1482 79 -899 31 -2448 -8 -3218 -79 -47 -5 -88 -5 -92 -2 -6
6 -77 842 -72 850 4 5 313 29 604 46 495 28 954 45 1428 52 l472 6 -1 91 c-1
71 -3 83 -9 56 -16 -68 -98 -107 -159 -76 -17 9 -31 21 -31 26 0 13 1 13 39
-6 39 -19 74 -12 107 21 32 32 31 68 -2 85 -14 8 -32 27 -40 42 l-14 27 -84
-40 c-96 -45 -154 -56 -212 -40 -123 33 -128 167 -8 200 73 20 177 5 262 -38
l38 -19 17 29 17 30 -73 35 c-132 63 -197 79 -337 78 -136 0 -184 -12 -248
-60 l-34 -26 41 -42 c33 -33 41 -49 41 -78 0 -42 -18 -61 -56 -56 -43 5 -69
49 -67 114 2 51 0 54 -25 61 -15 5 -59 7 -97 6 -58 -1 -96 -11 -210 -53 -194
-72 -254 -84 -415 -84 -119 1 -143 4 -201 26 -74 27 -118 58 -143 101 -24 38
-6 34 35 -9 74 -77 187 -109 354 -100 123 6 219 30 388 95 124 48 208 60 286
41 51 -12 53 -11 79 13 66 63 216 97 341 77 96 -15 219 -54 294 -92 52 -26 62
-28 93 -18 19 7 31 16 28 22 -12 19 -207 106 -284 127 -49 14 -105 21 -162 21
-88 0 -121 15 -50 23 55 6 137 -3 222 -24z m733 -203 c106 -45 95 -162 -18
-195 -39 -11 -61 -12 -103 -3 -52 11 -178 67 -188 84 -13 21 5 16 67 -16 83
-44 142 -59 197 -51 57 9 92 42 92 89 0 91 -152 112 -304 43 -39 -18 -56 -22
-56 -13 0 7 17 21 38 30 96 44 215 58 275 32z m-2468 -317 c4 -44 3 -84 -1
-88 -5 -5 -124 -16 -264 -25 -140 -10 -258 -21 -261 -24 -3 -4 6 -155 21 -337
16 -181 26 -332 24 -334 -2 -2 -52 -8 -111 -13 -60 -5 -141 -12 -181 -17 -40
-4 -75 -5 -77 -2 -3 2 -5 17 -5 32 0 27 1 27 118 44 172 26 175 34 15 34 -117
1 -143 4 -143 15 0 18 9 21 145 42 161 25 157 38 -8 31 -117 -5 -139 -4 -144
9 -3 8 -4 17 -2 19 2 2 62 13 134 25 71 11 131 23 134 25 2 3 -57 5 -131 5
-109 0 -137 3 -141 14 -7 18 -1 20 138 42 164 25 163 36 -2 29 -135 -6 -143
-5 -143 13 0 16 16 21 123 37 67 10 129 22 137 26 8 5 -49 9 -127 9 -117 0
-143 3 -143 14 0 18 10 21 145 41 164 25 158 39 -12 31 -136 -7 -143 -6 -143
12 0 17 14 22 113 37 175 26 179 33 20 34 -117 1 -143 4 -143 15 0 18 10 21
153 42 64 10 117 22 117 27 0 6 -49 7 -134 3 -115 -7 -134 -5 -139 8 -3 8 -3
18 2 20 4 3 65 14 136 25 70 11 130 23 133 26 3 3 -58 5 -135 5 l-141 0 -5 28
c-3 15 -4 29 -2 31 6 6 765 67 866 70 l57 1 7 -81z m4388 61 c341 -26 588 -47
592 -52 2 -1 1 -16 -2 -31 l-6 -28 -139 2 c-77 0 -141 -1 -144 -4 -2 -2 57
-14 132 -26 147 -23 156 -25 148 -44 -3 -9 -41 -11 -147 -9 -86 2 -138 0 -132
-5 6 -5 62 -17 125 -27 142 -21 150 -24 150 -43 0 -14 -18 -15 -145 -11 -80 2
-145 1 -145 -3 0 -5 245 -49 274 -49 4 0 6 -8 4 -17 -3 -16 -17 -18 -148 -15
-171 4 -176 -7 -15 -32 149 -23 155 -24 155 -41 0 -13 -24 -15 -142 -16 -161
0 -158 -8 15 -34 101 -15 117 -20 117 -36 0 -17 -8 -18 -147 -12 -82 3 -145 2
-141 -2 4 -4 69 -18 144 -31 75 -13 139 -25 141 -28 3 -3 2 -9 -2 -15 -4 -7
-59 -11 -148 -12 -78 0 -137 -3 -131 -5 6 -3 69 -15 140 -27 98 -17 129 -26
129 -37 0 -13 -21 -15 -145 -12 -167 3 -169 -7 -5 -32 136 -21 145 -24 145
-42 0 -11 -25 -14 -142 -14 -78 0 -139 -2 -137 -5 3 -2 64 -14 137 -26 l132
-22 0 -28 c0 -15 -3 -30 -7 -32 -9 -5 -361 28 -366 34 -2 2 9 153 24 334 15
182 24 333 21 337 -7 6 -384 38 -462 38 -70 0 -73 5 -65 99 l8 81 29 0 c16 0
152 -9 301 -20z m-2711 -1154 c91 -18 215 -64 292 -111 l57 -34 41 25 c136 86
387 154 482 130 49 -12 26 -21 -57 -22 -128 -1 -281 -47 -402 -119 -32 -19
-61 -35 -65 -35 -4 0 -34 16 -66 35 -67 41 -191 90 -266 107 -29 6 -90 12
-135 12 -46 1 -83 4 -83 8 0 20 106 22 202 4z m-52 -77 c91 -14 200 -53 307
-109 l93 -48 102 51 c57 29 134 62 171 75 193 63 381 50 490 -33 45 -35 47
-35 92 -24 76 19 168 6 303 -45 151 -56 223 -75 332 -87 163 -17 312 20 392
98 48 47 60 37 16 -13 -75 -85 -238 -126 -422 -106 -101 11 -160 27 -381 106
-104 37 -169 44 -236 26 -35 -10 -35 -10 -35 -64 1 -71 -26 -111 -75 -111 -71
0 -71 91 1 147 l32 25 -37 30 c-85 71 -266 87 -430 38 -94 -27 -267 -104 -279
-124 -4 -6 7 -17 27 -27 33 -16 36 -16 78 9 101 58 237 74 315 37 96 -47 74
-160 -37 -191 -60 -16 -129 -1 -235 52 -92 47 -104 46 -131 -18 -20 -48 -16
-71 16 -104 34 -33 83 -39 119 -13 19 13 22 13 22 1 0 -37 -59 -54 -114 -33
-76 29 -97 104 -50 183 25 43 25 45 7 59 -31 24 -60 27 -90 8 -15 -10 -29 -19
-31 -20 -1 0 9 -21 23 -45 13 -24 25 -60 25 -79 0 -84 -79 -138 -155 -106 -19
8 -35 20 -35 25 0 14 27 14 35 1 9 -14 77 -12 96 3 21 16 39 51 39 77 0 30
-38 100 -54 100 -7 0 -52 -20 -100 -44 -47 -24 -104 -47 -126 -51 -98 -17
-190 33 -190 104 0 20 7 47 16 60 50 70 226 67 353 -6 42 -25 45 -25 78 -9 19
9 31 21 28 26 -4 6 -42 28 -86 50 -164 83 -332 120 -455 100 -77 -12 -148 -40
-181 -72 l-22 -20 40 -38 c33 -31 39 -43 39 -77 0 -47 -17 -66 -56 -61 -42 5
-68 48 -68 113 1 54 1 55 -34 66 -62 20 -156 5 -302 -49 -160 -59 -187 -66
-304 -82 -180 -25 -333 9 -419 91 -28 27 -48 52 -44 55 4 4 29 -14 56 -39 71
-67 159 -93 306 -90 132 1 230 23 405 88 140 52 235 66 315 46 45 -11 48 -11
82 19 75 66 216 93 363 69z"/>
<path d="M3796 4362 c44 -15 106 -43 138 -62 124 -75 229 -224 262 -371 16
-69 16 -69 50 -69 30 0 34 3 34 26 0 44 -48 172 -91 239 -75 119 -213 217
-350 250 -109 25 -135 18 -43 -13z"/>
<path d="M2896 3314 c-10 -39 22 -99 54 -99 21 0 26 5 28 33 3 26 -3 39 -28
62 -39 37 -46 37 -54 4z"/>
<path d="M4451 3306 c-37 -38 -41 -88 -8 -94 39 -8 77 60 62 108 -9 27 -16 25
-54 -14z"/>
<path d="M3276 3320 c-43 -13 -66 -39 -66 -75 0 -63 75 -104 161 -89 54 10
209 85 209 102 0 9 -3 13 -6 9 -4 -3 -27 4 -53 17 -79 40 -181 55 -245 36z"/>
<path d="M3640 3287 c0 -24 4 -28 23 -25 15 2 21 9 19 21 -4 25 33 22 52 -5
27 -38 -16 -84 -56 -59 -27 17 -38 3 -13 -15 21 -15 59 -11 82 8 18 14 16 73
-2 88 -8 7 -35 13 -60 14 -43 1 -45 0 -45 -27z"/>
<path d="M1410 2755 l0 -65 65 0 65 0 0 65 0 65 -65 0 -65 0 0 -65z"/>
<path d="M5860 2755 l0 -65 65 0 65 0 0 65 0 65 -65 0 -65 0 0 -65z"/>
<path d="M3355 2674 c-7 -3 -7 -32 -1 -88 14 -132 7 -134 -81 -17 -74 97 -78
101 -115 101 -35 0 -38 -2 -28 -19 15 -29 13 -278 -2 -284 -9 -3 -7 -7 5 -12
22 -9 57 3 39 14 -9 6 -12 38 -10 121 l3 113 90 -119 c50 -65 97 -119 105
-119 13 0 14 21 11 141 -2 97 0 143 8 148 26 16 6 33 -24 20z"/>
<path d="M3610 2668 c0 -23 -102 -272 -116 -284 -21 -17 -17 -24 16 -24 28 0
42 14 20 22 -5 2 -1 22 10 46 19 41 20 42 70 42 50 0 51 -1 70 -42 11 -24 15
-44 10 -46 -6 -2 -8 -8 -4 -13 6 -11 97 -12 92 -1 -12 22 -42 90 -86 192 -31
72 -55 116 -65 118 -10 2 -17 -2 -17 -10z m13 -105 c8 -16 18 -38 21 -50 7
-21 4 -23 -33 -23 -23 0 -41 3 -41 7 0 11 32 93 36 93 2 0 10 -12 17 -27z"/>
<path d="M3890 2671 c0 -6 4 -12 9 -16 9 -5 7 -156 -3 -257 -3 -32 -1 -38 14
-38 11 0 22 5 25 10 3 6 1 10 -4 10 -7 0 -11 39 -11 110 0 61 4 110 8 110 5 0
29 -45 55 -100 54 -117 68 -124 100 -48 11 28 33 76 49 107 l27 56 -2 -128 -2
-127 50 0 c38 0 46 3 37 12 -17 17 -17 269 1 287 10 10 2 12 -38 9 l-49 -3
-40 -92 c-21 -51 -42 -93 -46 -93 -4 0 -27 45 -53 100 l-46 100 -40 0 c-23 0
-41 -4 -41 -9z"/>
<path d="M2745 2662 c-14 -9 6 -228 22 -258 17 -29 73 -54 123 -54 34 0 48 6
76 34 l34 34 0 110 c0 61 3 117 6 126 5 12 0 16 -20 16 -26 0 -35 -13 -16 -25
6 -4 10 -54 10 -116 0 -103 -1 -111 -25 -134 -30 -31 -86 -34 -113 -7 -15 15
-20 42 -26 132 -4 74 -3 117 4 124 5 5 10 14 10 18 0 10 -71 10 -85 0z"/>
<path d="M4483 2653 c-24 -70 -108 -261 -119 -274 -20 -22 -17 -29 9 -29 19 0
24 5 24 29 0 16 7 41 17 55 13 21 24 26 59 26 23 0 47 -4 52 -8 18 -12 36 -63
30 -83 -6 -17 -1 -19 45 -19 50 0 50 0 37 23 -8 12 -36 78 -63 147 -26 69 -52
131 -57 138 -13 17 -27 15 -34 -5z m10 -100 c8 -16 18 -38 21 -50 7 -22 4 -23
-37 -23 l-45 0 21 50 c11 28 22 50 24 50 1 0 9 -12 16 -27z"/>
<path d="M2394 2642 c-61 -29 -89 -74 -89 -144 0 -63 19 -97 75 -135 24 -17
47 -23 84 -23 98 0 166 66 166 161 0 117 -126 192 -236 141z m105 -18 c58 -41
82 -185 40 -238 -29 -37 -86 -36 -121 2 -57 60 -64 185 -14 229 32 27 63 29
95 7z"/>
<path d="M4704 2645 c-4 -9 -3 -19 1 -23 4 -4 10 -1 12 6 3 6 20 12 40 12 l35
0 -8 -137 c-3 -76 -11 -140 -15 -141 -22 -9 6 -22 45 -22 l43 0 -5 55 c-2 30
-1 97 3 150 l7 95 28 0 c17 0 34 -7 40 -17 9 -16 10 -15 8 7 -3 25 -4 25 -116
28 -95 2 -113 0 -118 -13z"/>
<path d="M5110 2641 c0 -17 -111 -264 -126 -282 -16 -18 -9 -29 18 -29 14 0
18 5 14 18 -3 9 3 33 12 52 14 28 24 36 51 38 57 6 77 -4 91 -47 7 -21 10 -43
6 -49 -3 -5 12 -12 35 -16 46 -7 65 0 50 18 -6 7 -35 78 -65 157 -35 94 -60
145 -70 147 -9 2 -16 -1 -16 -7z m24 -158 c7 -21 4 -23 -34 -23 -38 0 -41 2
-34 23 3 12 13 36 22 52 l15 30 12 -30 c7 -16 16 -40 19 -52z"/>
<path d="M1952 2633 c-36 -4 -43 -7 -37 -21 4 -9 9 -80 11 -157 4 -115 7 -140
19 -139 8 0 29 1 47 2 25 2 29 5 20 14 -7 7 -12 38 -12 73 l1 60 49 -55 c27
-30 49 -62 47 -70 -3 -18 24 -24 71 -15 31 6 34 9 22 18 -21 16 -140 159 -140
168 0 11 81 109 91 109 5 0 9 5 9 10 0 6 -12 10 -26 10 -14 0 -22 -4 -19 -10
7 -11 -93 -140 -108 -140 -5 0 -8 33 -5 75 2 41 3 74 3 73 0 -1 -20 -3 -43 -5z"/>
<path d="M5337 2634 c-4 -4 -7 -17 -7 -28 1 -19 2 -19 11 -3 6 10 22 17 41 17
l31 0 -7 -135 c-3 -74 -9 -141 -12 -148 -4 -10 7 -16 36 -21 44 -7 71 1 50 14
-9 6 -10 41 -5 144 l7 136 26 0 c14 0 34 -7 44 -17 17 -15 18 -15 18 6 0 12
-6 23 -12 26 -26 8 -214 15 -221 9z"/>
<path d="M1626 2608 c-25 -97 -92 -286 -104 -295 -13 -11 -13 -13 1 -19 24 -9
48 3 41 20 -3 8 -1 31 5 49 10 29 18 35 49 41 20 3 45 6 54 6 22 0 60 -72 51
-96 -5 -14 -2 -16 18 -11 13 4 37 7 53 7 25 0 27 2 15 16 -8 9 -45 78 -84 152
-66 129 -90 161 -99 130z m31 -132 l22 -44 -37 -5 c-20 -2 -40 -3 -44 0 -8 4
21 93 31 93 4 0 17 -20 28 -44z"/>
<path d="M5710 2553 c-17 -37 -48 -103 -67 -145 -20 -43 -40 -78 -44 -78 -5 0
-9 -4 -9 -10 0 -5 12 -10 26 -10 15 0 23 4 18 11 -3 6 2 28 11 50 17 37 20 39
64 39 25 0 51 -4 57 -8 15 -9 37 -79 29 -91 -7 -12 58 -26 81 -17 12 5 14 9 5
20 -6 7 -35 78 -64 157 -28 78 -57 144 -63 146 -7 2 -26 -27 -44 -64z m49
-110 c1 -9 -13 -13 -40 -13 -37 0 -40 2 -33 23 3 12 13 36 22 52 l15 30 18
-40 c10 -22 18 -46 18 -52z"/>
<path d="M1410 2180 l0 -70 65 0 65 0 0 70 0 70 -65 0 -65 0 0 -70z"/>
<path d="M5860 2180 l0 -70 65 0 65 0 0 70 0 70 -65 0 -65 0 0 -70z"/>
<path d="M2896 1684 c-10 -39 22 -99 54 -99 21 0 26 5 28 33 3 25 -3 39 -27
62 -36 37 -47 38 -55 4z"/>
<path d="M4449 1679 c-35 -38 -39 -84 -8 -94 39 -13 80 54 64 105 -9 28 -22
25 -56 -11z"/>
<path d="M3276 1690 c-73 -22 -90 -88 -34 -135 29 -25 38 -27 103 -23 59 3 84
10 148 43 42 22 77 45 77 51 0 12 -71 45 -135 63 -46 13 -118 13 -159 1z"/>
<path d="M3937 1681 c-60 -20 -107 -46 -107 -60 0 -4 39 -26 88 -49 73 -35 97
-42 149 -42 52 0 66 4 93 26 41 35 40 86 -3 118 -39 29 -143 32 -220 7z"/>
</g>
</svg>
